<mxfile host="app.diagrams.net" agent="Mozilla/5.0 (Windows NT 10.0; Win64; x64; rv:142.0) Gecko/20100101 Firefox/142.0" version="28.0.9">
  <diagram name="‫עמוד-1‬" id="l02C7UReTLEdAcKypzuA">
    <mxGraphModel dx="1455" dy="515" grid="1" gridSize="10" guides="1" tooltips="1" connect="1" arrows="1" fold="1" page="1" pageScale="1" pageWidth="827" pageHeight="1169" math="0" shadow="0">
      <root>
        <mxCell id="0" />
        <mxCell id="1" parent="0" />
        <mxCell id="Bq_EVa2V1ZL1fmEeLUb7-54" value="Simulate Action" style="edgeStyle=orthogonalEdgeStyle;shape=connector;rounded=0;orthogonalLoop=1;jettySize=auto;html=1;entryX=0.585;entryY=-0.002;entryDx=0;entryDy=0;strokeColor=default;align=center;verticalAlign=middle;fontFamily=Helvetica;fontSize=11;fontColor=default;labelBackgroundColor=default;startArrow=none;startFill=0;endArrow=classic;entryPerimeter=0;" parent="1" source="Bq_EVa2V1ZL1fmEeLUb7-46" target="Bq_EVa2V1ZL1fmEeLUb7-15" edge="1">
          <mxGeometry relative="1" as="geometry">
            <Array as="points">
              <mxPoint x="745" y="360" />
              <mxPoint x="540" y="360" />
              <mxPoint x="540" y="510" />
            </Array>
          </mxGeometry>
        </mxCell>
        <mxCell id="Bq_EVa2V1ZL1fmEeLUb7-46" value="" style="rounded=0;whiteSpace=wrap;html=1;fontFamily=Helvetica;fontSize=11;fontColor=default;labelBackgroundColor=default;" parent="1" vertex="1">
          <mxGeometry x="705" y="240" width="110" height="40" as="geometry" />
        </mxCell>
        <mxCell id="Bq_EVa2V1ZL1fmEeLUb7-47" value="" style="rounded=0;whiteSpace=wrap;html=1;fontFamily=Helvetica;fontSize=11;fontColor=default;labelBackgroundColor=default;" parent="1" vertex="1">
          <mxGeometry x="695" y="225" width="110" height="40" as="geometry" />
        </mxCell>
        <mxCell id="Bq_EVa2V1ZL1fmEeLUb7-1" value="Neuro" style="ellipse;shape=cloud;whiteSpace=wrap;html=1;" parent="1" vertex="1">
          <mxGeometry x="10" y="176.25" width="120" height="110" as="geometry" />
        </mxCell>
        <mxCell id="Bq_EVa2V1ZL1fmEeLUb7-4" value="&lt;font style=&quot;font-size: 8px;&quot;&gt;Neuro API&lt;/font&gt;" style="edgeStyle=orthogonalEdgeStyle;rounded=0;orthogonalLoop=1;jettySize=auto;html=1;startArrow=classic;startFill=1;exitX=0;exitY=0.5;exitDx=0;exitDy=0;" parent="1" source="Bq_EVa2V1ZL1fmEeLUb7-6" target="Bq_EVa2V1ZL1fmEeLUb7-1" edge="1">
          <mxGeometry relative="1" as="geometry">
            <mxPoint x="230" y="235" as="sourcePoint" />
          </mxGeometry>
        </mxCell>
        <mxCell id="Bq_EVa2V1ZL1fmEeLUb7-8" style="edgeStyle=orthogonalEdgeStyle;rounded=0;orthogonalLoop=1;jettySize=auto;html=1;entryX=0;entryY=0.5;entryDx=0;entryDy=0;startArrow=classic;startFill=1;" parent="1" source="Bq_EVa2V1ZL1fmEeLUb7-6" target="Bq_EVa2V1ZL1fmEeLUb7-7" edge="1">
          <mxGeometry relative="1" as="geometry" />
        </mxCell>
        <mxCell id="Bq_EVa2V1ZL1fmEeLUb7-6" value="Neuro Unity SDK" style="shape=hexagon;perimeter=hexagonPerimeter2;whiteSpace=wrap;html=1;fixedSize=1;" parent="1" vertex="1">
          <mxGeometry x="190" y="205" width="80" height="52.5" as="geometry" />
        </mxCell>
        <mxCell id="Bq_EVa2V1ZL1fmEeLUb7-20" value="&lt;font style=&quot;font-size: 8px;&quot;&gt;StateData&lt;/font&gt;" style="shape=connector;rounded=0;orthogonalLoop=1;jettySize=auto;html=1;entryX=0;entryY=0.5;entryDx=0;entryDy=0;strokeColor=default;align=center;verticalAlign=middle;fontFamily=Helvetica;fontSize=11;fontColor=default;labelBackgroundColor=default;startArrow=classic;startFill=1;endArrow=none;edgeStyle=orthogonalEdgeStyle;endFill=0;" parent="1" source="Bq_EVa2V1ZL1fmEeLUb7-7" target="Bq_EVa2V1ZL1fmEeLUb7-19" edge="1">
          <mxGeometry x="0.2632" relative="1" as="geometry">
            <Array as="points">
              <mxPoint x="365" y="130" />
            </Array>
            <mxPoint as="offset" />
          </mxGeometry>
        </mxCell>
        <mxCell id="Bq_EVa2V1ZL1fmEeLUb7-7" value="Neuro Valet&lt;div&gt;&lt;font style=&quot;font-size: 8px;&quot;&gt;(BepInEx.BaseUnityPlugin)&lt;/font&gt;&lt;/div&gt;" style="rounded=0;whiteSpace=wrap;html=1;" parent="1" vertex="1">
          <mxGeometry x="300" y="201.25" width="100" height="60" as="geometry" />
        </mxCell>
        <mxCell id="Bq_EVa2V1ZL1fmEeLUb7-14" value="Init" style="edgeStyle=orthogonalEdgeStyle;shape=connector;rounded=0;orthogonalLoop=1;jettySize=auto;html=1;strokeColor=default;align=center;verticalAlign=middle;fontFamily=Helvetica;fontSize=11;fontColor=default;labelBackgroundColor=default;startArrow=none;startFill=0;endArrow=classic;dashed=1;dashPattern=8 8;exitX=0.25;exitY=1;exitDx=0;exitDy=0;" parent="1" source="Bq_EVa2V1ZL1fmEeLUb7-7" target="Bq_EVa2V1ZL1fmEeLUb7-13" edge="1">
          <mxGeometry relative="1" as="geometry">
            <Array as="points">
              <mxPoint x="330" y="261" />
              <mxPoint x="330" y="300" />
              <mxPoint x="290" y="300" />
              <mxPoint x="290" y="430" />
              <mxPoint x="360" y="430" />
            </Array>
            <mxPoint x="290" y="300" as="sourcePoint" />
          </mxGeometry>
        </mxCell>
        <mxCell id="Bq_EVa2V1ZL1fmEeLUb7-16" style="edgeStyle=orthogonalEdgeStyle;shape=connector;rounded=0;orthogonalLoop=1;jettySize=auto;html=1;strokeColor=default;align=center;verticalAlign=middle;fontFamily=Helvetica;fontSize=11;fontColor=default;labelBackgroundColor=default;startArrow=none;startFill=0;endArrow=classic;dashed=1;dashPattern=8 8;" parent="1" target="Bq_EVa2V1ZL1fmEeLUb7-15" edge="1">
          <mxGeometry relative="1" as="geometry">
            <Array as="points">
              <mxPoint x="290" y="350" />
              <mxPoint x="290" y="430" />
              <mxPoint x="510" y="430" />
            </Array>
            <mxPoint x="290" y="350" as="sourcePoint" />
          </mxGeometry>
        </mxCell>
        <mxCell id="Bq_EVa2V1ZL1fmEeLUb7-13" value="Debug Gui" style="rounded=0;whiteSpace=wrap;html=1;fontFamily=Helvetica;fontSize=11;fontColor=default;labelBackgroundColor=default;" parent="1" vertex="1">
          <mxGeometry x="294" y="470" width="120" height="60" as="geometry" />
        </mxCell>
        <mxCell id="Bq_EVa2V1ZL1fmEeLUb7-15" value="Mouse Simulator" style="rounded=0;whiteSpace=wrap;html=1;fontFamily=Helvetica;fontSize=11;fontColor=default;labelBackgroundColor=default;" parent="1" vertex="1">
          <mxGeometry x="470" y="470" width="120" height="60" as="geometry" />
        </mxCell>
        <mxCell id="Bq_EVa2V1ZL1fmEeLUb7-19" value="State Reporter" style="rounded=0;whiteSpace=wrap;html=1;fontFamily=Helvetica;fontSize=11;fontColor=default;labelBackgroundColor=default;" parent="1" vertex="1">
          <mxGeometry x="480" y="100" width="120" height="60" as="geometry" />
        </mxCell>
        <mxCell id="Y55ygexArqPw35aI5qSi-5" value="&lt;font style=&quot;font-size: 8px;&quot;&gt;PossibleActions&lt;/font&gt;" style="edgeStyle=orthogonalEdgeStyle;rounded=0;orthogonalLoop=1;jettySize=auto;html=1;entryX=1;entryY=0.5;entryDx=0;entryDy=0;" edge="1" parent="1" source="Bq_EVa2V1ZL1fmEeLUb7-22" target="Bq_EVa2V1ZL1fmEeLUb7-7">
          <mxGeometry y="4" relative="1" as="geometry">
            <Array as="points">
              <mxPoint x="435" y="231" />
            </Array>
            <mxPoint as="offset" />
          </mxGeometry>
        </mxCell>
        <mxCell id="Bq_EVa2V1ZL1fmEeLUb7-22" value="Action Manager" style="rounded=0;whiteSpace=wrap;html=1;fontFamily=Helvetica;fontSize=11;fontColor=default;labelBackgroundColor=default;" parent="1" vertex="1">
          <mxGeometry x="480" y="205" width="120" height="60" as="geometry" />
        </mxCell>
        <mxCell id="Bq_EVa2V1ZL1fmEeLUb7-28" style="edgeStyle=orthogonalEdgeStyle;shape=connector;rounded=0;orthogonalLoop=1;jettySize=auto;html=1;strokeColor=default;align=center;verticalAlign=middle;fontFamily=Helvetica;fontSize=11;fontColor=default;labelBackgroundColor=default;startArrow=none;startFill=0;endArrow=classic;" parent="1" source="Bq_EVa2V1ZL1fmEeLUb7-23" target="Bq_EVa2V1ZL1fmEeLUb7-19" edge="1">
          <mxGeometry relative="1" as="geometry">
            <Array as="points">
              <mxPoint x="400" y="80" />
              <mxPoint x="540" y="80" />
            </Array>
          </mxGeometry>
        </mxCell>
        <mxCell id="Bq_EVa2V1ZL1fmEeLUb7-23" value="Player" style="shape=document;whiteSpace=wrap;html=1;boundedLbl=1;fontFamily=Helvetica;fontSize=11;fontColor=default;labelBackgroundColor=default;" parent="1" vertex="1">
          <mxGeometry x="370" y="40" width="60" height="30" as="geometry" />
        </mxCell>
        <mxCell id="Bq_EVa2V1ZL1fmEeLUb7-29" style="edgeStyle=orthogonalEdgeStyle;shape=connector;rounded=0;orthogonalLoop=1;jettySize=auto;html=1;entryX=0.5;entryY=0;entryDx=0;entryDy=0;strokeColor=default;align=center;verticalAlign=middle;fontFamily=Helvetica;fontSize=11;fontColor=default;labelBackgroundColor=default;startArrow=none;startFill=0;endArrow=classic;" parent="1" source="Bq_EVa2V1ZL1fmEeLUb7-25" target="Bq_EVa2V1ZL1fmEeLUb7-19" edge="1">
          <mxGeometry relative="1" as="geometry">
            <Array as="points">
              <mxPoint x="470" y="80" />
              <mxPoint x="540" y="80" />
            </Array>
          </mxGeometry>
        </mxCell>
        <mxCell id="Bq_EVa2V1ZL1fmEeLUb7-25" value="Luggage" style="shape=document;whiteSpace=wrap;html=1;boundedLbl=1;fontFamily=Helvetica;fontSize=11;fontColor=default;labelBackgroundColor=default;" parent="1" vertex="1">
          <mxGeometry x="440" y="40" width="60" height="30" as="geometry" />
        </mxCell>
        <mxCell id="Bq_EVa2V1ZL1fmEeLUb7-30" style="edgeStyle=orthogonalEdgeStyle;shape=connector;rounded=0;orthogonalLoop=1;jettySize=auto;html=1;entryX=0.5;entryY=0;entryDx=0;entryDy=0;strokeColor=default;align=center;verticalAlign=middle;fontFamily=Helvetica;fontSize=11;fontColor=default;labelBackgroundColor=default;startArrow=none;startFill=0;endArrow=classic;" parent="1" source="Bq_EVa2V1ZL1fmEeLUb7-26" target="Bq_EVa2V1ZL1fmEeLUb7-19" edge="1">
          <mxGeometry relative="1" as="geometry">
            <Array as="points">
              <mxPoint x="540" y="90" />
              <mxPoint x="540" y="90" />
            </Array>
          </mxGeometry>
        </mxCell>
        <mxCell id="Bq_EVa2V1ZL1fmEeLUb7-26" value="Game Data" style="shape=document;whiteSpace=wrap;html=1;boundedLbl=1;fontFamily=Helvetica;fontSize=11;fontColor=default;labelBackgroundColor=default;" parent="1" vertex="1">
          <mxGeometry x="510" y="40" width="60" height="30" as="geometry" />
        </mxCell>
        <mxCell id="Bq_EVa2V1ZL1fmEeLUb7-31" style="edgeStyle=orthogonalEdgeStyle;shape=connector;rounded=0;orthogonalLoop=1;jettySize=auto;html=1;entryX=0.5;entryY=0;entryDx=0;entryDy=0;strokeColor=default;align=center;verticalAlign=middle;fontFamily=Helvetica;fontSize=11;fontColor=default;labelBackgroundColor=default;startArrow=none;startFill=0;endArrow=classic;" parent="1" source="Bq_EVa2V1ZL1fmEeLUb7-27" target="Bq_EVa2V1ZL1fmEeLUb7-19" edge="1">
          <mxGeometry relative="1" as="geometry">
            <Array as="points">
              <mxPoint x="610" y="80" />
              <mxPoint x="540" y="80" />
            </Array>
          </mxGeometry>
        </mxCell>
        <mxCell id="Bq_EVa2V1ZL1fmEeLUb7-27" value="Journey" style="shape=document;whiteSpace=wrap;html=1;boundedLbl=1;fontFamily=Helvetica;fontSize=11;fontColor=default;labelBackgroundColor=default;" parent="1" vertex="1">
          <mxGeometry x="580" y="40" width="60" height="30" as="geometry" />
        </mxCell>
        <mxCell id="Bq_EVa2V1ZL1fmEeLUb7-49" value="&lt;font style=&quot;font-size: 8px;&quot;&gt;PossibleActions&lt;/font&gt;" style="edgeStyle=orthogonalEdgeStyle;shape=connector;rounded=0;orthogonalLoop=1;jettySize=auto;html=1;entryX=1;entryY=0.5;entryDx=0;entryDy=0;strokeColor=default;align=center;verticalAlign=middle;fontFamily=Helvetica;fontSize=11;fontColor=default;labelBackgroundColor=default;startArrow=none;startFill=0;endArrow=classic;exitX=0;exitY=0.25;exitDx=0;exitDy=0;" parent="1" edge="1" source="Bq_EVa2V1ZL1fmEeLUb7-43">
          <mxGeometry relative="1" as="geometry">
            <mxPoint x="670" y="225" as="sourcePoint" />
            <mxPoint x="600" y="225" as="targetPoint" />
          </mxGeometry>
        </mxCell>
        <mxCell id="Bq_EVa2V1ZL1fmEeLUb7-51" style="edgeStyle=orthogonalEdgeStyle;shape=connector;rounded=0;orthogonalLoop=1;jettySize=auto;html=1;entryX=1;entryY=0.5;entryDx=0;entryDy=0;strokeColor=default;align=center;verticalAlign=middle;fontFamily=Helvetica;fontSize=11;fontColor=default;labelBackgroundColor=default;startArrow=classic;startFill=1;endArrow=none;endFill=0;" parent="1" source="Bq_EVa2V1ZL1fmEeLUb7-43" target="Bq_EVa2V1ZL1fmEeLUb7-19" edge="1">
          <mxGeometry relative="1" as="geometry">
            <Array as="points">
              <mxPoint x="730" y="130" />
              <mxPoint x="600" y="130" />
            </Array>
          </mxGeometry>
        </mxCell>
        <mxCell id="Bq_EVa2V1ZL1fmEeLUb7-43" value="X View Parser&lt;br&gt;&lt;font style=&quot;font-size: 5px;&quot;&gt;Parser for each relevant &#39;View&#39;&lt;/font&gt;" style="rounded=0;whiteSpace=wrap;html=1;fontFamily=Helvetica;fontSize=11;fontColor=default;labelBackgroundColor=default;" parent="1" vertex="1">
          <mxGeometry x="685" y="215" width="110" height="40" as="geometry" />
        </mxCell>
        <mxCell id="Bq_EVa2V1ZL1fmEeLUb7-53" style="edgeStyle=orthogonalEdgeStyle;shape=connector;rounded=0;orthogonalLoop=1;jettySize=auto;html=1;strokeColor=default;align=center;verticalAlign=middle;fontFamily=Helvetica;fontSize=11;fontColor=default;labelBackgroundColor=default;startArrow=none;startFill=0;endArrow=classic;" parent="1" source="Bq_EVa2V1ZL1fmEeLUb7-52" target="Bq_EVa2V1ZL1fmEeLUb7-19" edge="1">
          <mxGeometry relative="1" as="geometry">
            <Array as="points">
              <mxPoint x="680" y="80" />
              <mxPoint x="540" y="80" />
            </Array>
          </mxGeometry>
        </mxCell>
        <mxCell id="Bq_EVa2V1ZL1fmEeLUb7-52" value="&lt;div&gt;Clock&lt;/div&gt;" style="shape=document;whiteSpace=wrap;html=1;boundedLbl=1;fontFamily=Helvetica;fontSize=11;fontColor=default;labelBackgroundColor=default;" parent="1" vertex="1">
          <mxGeometry x="650" y="40" width="60" height="30" as="geometry" />
        </mxCell>
        <mxCell id="Y55ygexArqPw35aI5qSi-1" style="edgeStyle=orthogonalEdgeStyle;rounded=0;orthogonalLoop=1;jettySize=auto;html=1;entryX=0.674;entryY=0.982;entryDx=0;entryDy=0;entryPerimeter=0;" edge="1" parent="1" source="Bq_EVa2V1ZL1fmEeLUb7-58" target="Bq_EVa2V1ZL1fmEeLUb7-7">
          <mxGeometry relative="1" as="geometry">
            <Array as="points">
              <mxPoint x="381" y="298" />
            </Array>
          </mxGeometry>
        </mxCell>
        <mxCell id="Bq_EVa2V1ZL1fmEeLUb7-58" value="&lt;font style=&quot;font-size: 10px;&quot;&gt;NeuroValet.cfg&lt;/font&gt;" style="shape=note;whiteSpace=wrap;html=1;backgroundOutline=1;darkOpacity=0.05;fontFamily=Helvetica;fontSize=11;fontColor=default;labelBackgroundColor=default;size=19;" parent="1" vertex="1">
          <mxGeometry x="350" y="330" width="70" height="60" as="geometry" />
        </mxCell>
        <mxCell id="Bq_EVa2V1ZL1fmEeLUb7-61" value="Game Views" style="shape=document;whiteSpace=wrap;html=1;boundedLbl=1;fontFamily=Helvetica;fontSize=11;fontColor=default;labelBackgroundColor=default;" parent="1" vertex="1">
          <mxGeometry x="735" y="30" width="60" height="40" as="geometry" />
        </mxCell>
        <mxCell id="Y55ygexArqPw35aI5qSi-6" value="" style="edgeStyle=orthogonalEdgeStyle;rounded=0;orthogonalLoop=1;jettySize=auto;html=1;endArrow=none;endFill=0;startArrow=classic;startFill=1;" edge="1" parent="1" source="Bq_EVa2V1ZL1fmEeLUb7-43">
          <mxGeometry relative="1" as="geometry">
            <mxPoint x="751" y="66" as="targetPoint" />
            <Array as="points">
              <mxPoint x="751" y="180" />
              <mxPoint x="751" y="180" />
            </Array>
          </mxGeometry>
        </mxCell>
        <mxCell id="Y55ygexArqPw35aI5qSi-7" value="Execute" style="edgeStyle=orthogonalEdgeStyle;rounded=0;orthogonalLoop=1;jettySize=auto;html=1;entryX=0.746;entryY=0.731;entryDx=0;entryDy=0;entryPerimeter=0;" edge="1" parent="1" source="Bq_EVa2V1ZL1fmEeLUb7-43" target="Bq_EVa2V1ZL1fmEeLUb7-61">
          <mxGeometry relative="1" as="geometry">
            <Array as="points">
              <mxPoint x="780" y="180" />
              <mxPoint x="780" y="180" />
            </Array>
          </mxGeometry>
        </mxCell>
      </root>
    </mxGraphModel>
  </diagram>
</mxfile>
